<?xml version="1.0" encoding="UTF-8" standalone="no"?>
<svg
   xmlns:dc="http://purl.org/dc/elements/1.1/"
   xmlns:cc="http://creativecommons.org/ns#"
   xmlns:rdf="http://www.w3.org/1999/02/22-rdf-syntax-ns#"
   xmlns:svg="http://www.w3.org/2000/svg"
   xmlns="http://www.w3.org/2000/svg"
   xmlns:sodipodi="http://sodipodi.sourceforge.net/DTD/sodipodi-0.dtd"
   xmlns:inkscape="http://www.inkscape.org/namespaces/inkscape"
   version="1.1"
   id="svg945"
   width="1000"
   height="252"
   viewBox="0 0 1000 252"
   sodipodi:docname="logo-kfk-all.svg"
   inkscape:version="1.0.1 (0767f8302a, 2020-10-17)"
   inkscape:export-filename="/home/iurii/Pictures/logo-kfk-all.png"
   inkscape:export-xdpi="72"
   inkscape:export-ydpi="72">
  <metadata
     id="metadata951">
    <rdf:RDF>
      <cc:Work
         rdf:about="">
        <dc:format>image/svg+xml</dc:format>
        <dc:type
           rdf:resource="http://purl.org/dc/dcmitype/StillImage" />
        <dc:title />
      </cc:Work>
    </rdf:RDF>
  </metadata>
  <defs
     id="defs949">
    <filter
       inkscape:collect="always"
       style="color-interpolation-filters:sRGB"
       id="filter2417"
       x="0.0040754676"
       width="0.99732518"
       y="-0.0038136244"
       height="0.99333304">
      <feGaussianBlur
         inkscape:collect="always"
         stdDeviation="0.025194223"
         id="feGaussianBlur2419" />
    </filter>
  </defs>
  <sodipodi:namedview
     pagecolor="#ffffff"
     bordercolor="#666666"
     borderopacity="1"
     objecttolerance="10"
     gridtolerance="10"
     guidetolerance="10"
     inkscape:pageopacity="0"
     inkscape:pageshadow="2"
     inkscape:window-width="1920"
     inkscape:window-height="1135"
     id="namedview947"
     showgrid="false"
     inkscape:zoom="0.70710678"
     inkscape:cx="612.38463"
     inkscape:cy="205.38107"
     inkscape:window-x="0"
     inkscape:window-y="0"
     inkscape:window-maximized="1"
     inkscape:current-layer="g953"
     inkscape:document-rotation="0" />
  <g
     inkscape:groupmode="layer"
     inkscape:label="Image"
     id="g953">
    <path
       style="fill:none;stroke:#000000;stroke-width:1px;stroke-linecap:butt;stroke-linejoin:miter;stroke-opacity:1"
       d="M -135.61359,-189.74562 Z"
       id="path1025" />
    <text
       xml:space="preserve"
       style="font-style:normal;font-weight:normal;font-size:40px;line-height:1.25;font-family:sans-serif;fill:#000000;fill-opacity:1;stroke:none"
       x="144.03864"
       y="-260.52863"
       id="text1568"><tspan
         sodipodi:role="line"
         id="tspan1566"
         x="144.03864"
         y="-260.52863" /></text>
    <g
       id="g2028">
      <text
         xml:space="preserve"
         style="font-style:normal;font-weight:normal;font-size:69.0185px;line-height:1.25;font-family:sans-serif;fill:#000000;fill-opacity:1;stroke:none;stroke-width:1.72546"
         x="213.28194"
         y="137.83817"
         id="text959"
         transform="scale(1.0543665,0.94843681)"><tspan
           sodipodi:role="line"
           id="tspan957"
           x="213.28194"
           y="137.83817"
           style="font-style:normal;font-variant:normal;font-weight:600;font-stretch:normal;font-size:165.644px;font-family:FreeSans;-inkscape-font-specification:'FreeSans, Semi-Bold';font-variant-ligatures:normal;font-variant-caps:normal;font-variant-numeric:normal;font-variant-east-asian:normal;stroke-width:1.72546">KANTOR</tspan></text>
      <text
         xml:space="preserve"
         style="font-style:normal;font-weight:normal;font-size:67.8017px;line-height:1.25;font-family:sans-serif;fill:#228b22;fill-opacity:1;stroke:none;stroke-width:1.69504"
         x="223.91019"
         y="195.98473"
         id="text963"
         transform="scale(1.0357777,0.96545813)"><tspan
           sodipodi:role="line"
           id="tspan961"
           x="223.91019"
           y="195.98473"
           style="font-style:normal;font-variant:normal;font-weight:bold;font-stretch:normal;font-size:67.8017px;font-family:Lato;-inkscape-font-specification:'Lato, Bold';font-variant-ligatures:normal;font-variant-caps:normal;font-variant-numeric:normal;font-variant-east-asian:normal;fill:#228b22;stroke-width:1.69504">файний</tspan></text>
      <text
         xml:space="preserve"
         style="font-style:normal;font-weight:normal;font-size:66.3716px;line-height:1.25;font-family:sans-serif;fill:#000000;fill-opacity:1;stroke:none;stroke-width:1.65929"
         x="485.74551"
         y="192.14961"
         id="text967"
         transform="scale(1.0139307,0.98626069)"><tspan
           sodipodi:role="line"
           id="tspan965"
           x="485.74551"
           y="192.14961"
           style="font-style:normal;font-variant:normal;font-weight:bold;font-stretch:normal;font-size:66.3716px;font-family:Lato;-inkscape-font-specification:'Lato, Bold';font-variant-ligatures:normal;font-variant-caps:normal;font-variant-numeric:normal;font-variant-east-asian:normal;stroke-width:1.65929">курс</tspan></text>
      <rect
         style="opacity:0.993;fill:#ffd700;fill-opacity:0.996078;stroke:none;stroke-width:2.219;stroke-miterlimit:4;stroke-dasharray:none;filter:url(#filter2417)"
         id="rect1564"
         width="322.94727"
         height="68.00312"
         x="648.45093"
         y="135.63565"
         transform="matrix(1.0234778,4.1646784e-4,-4.262456e-4,0.99999991,-15.151244,-0.33724698)"
         ry="24.176491" />
      <text
         xml:space="preserve"
         style="font-style:normal;font-weight:normal;font-size:43.1875px;line-height:1.25;font-family:sans-serif;fill:#000000;fill-opacity:1;stroke:none;stroke-width:1.07968"
         x="761.46259"
         y="173.56296"
         id="text1562"
         transform="scale(0.92604203,1.0798646)"><tspan
           sodipodi:role="line"
           id="tspan1560"
           x="761.46259"
           y="173.56296"
           style="font-style:normal;font-variant:normal;font-weight:600;font-stretch:normal;font-size:43.1875px;font-family:FreeSans;-inkscape-font-specification:'FreeSans, Semi-Bold';font-variant-ligatures:normal;font-variant-caps:normal;font-variant-numeric:normal;font-variant-east-asian:normal;stroke-width:1.07968">09 600 13 600</tspan></text>
      <path
         inkscape:transform-center-y="0.099990857"
         inkscape:transform-center-x="-0.079603368"
         inkscape:connector-curvature="0"
         id="path4185"
         d="m 683.27603,155.10167 c 2.46429,0.67324 6.67656,1.67455 5.55707,6.20008 -1.42283,5.75168 -5.4335,10.98577 -8.75188,14.99154 l 8e-5,1.1e-4 c -0.004,0.004 -0.007,0.007 -0.01,0.0119 -0.004,0.004 -0.007,0.007 -0.01,0.0119 l -10e-5,-1e-4 c -3.31961,4.00423 -7.65722,8.84383 -12.42374,10.56074 -3.75037,1.35088 -4.58018,-3.73199 -5.1381,-6.70561 l 7.9597,-4.22363 3.11885,2.02943 c 1.1542,-0.8886 3.147,-3.11799 4.37949,-4.60431 1.23174,-1.48722 3.07929,-3.89191 3.81568,-5.28463 l -1.99749,-3.3826 3.5002,-9.60483 z"
         style="color:#000000;display:inline;overflow:visible;visibility:visible;fill:#2f4f4f;fill-opacity:1;fill-rule:nonzero;stroke:none;stroke-width:4.16009;marker:none;enable-background:accumulate"
         sodipodi:nodetypes="cscccccscccccccc" />
    </g>
    <g
       id="g3323"
       transform="translate(4.0145487,-331.88918)">
      <path
         style="fill:#000000;stroke:#000000;stroke-width:0.660575px;stroke-linecap:butt;stroke-linejoin:miter;stroke-opacity:1"
         d="m 114.82252,451.78919 -0.20692,-91.49091 22.66792,0.25637 -0.17285,79.35742 z"
         id="path1029-4"
         sodipodi:nodetypes="ccccc" />
      <path
         style="fill:#000000;stroke:#000000;stroke-width:0.660575px;stroke-linecap:butt;stroke-linejoin:miter;stroke-opacity:1"
         d="m 58.655499,454.13903 0.205926,-65.3257 22.309129,0.27081 0.631396,85.06815 C 74.091266,470.32892 64.832568,463.7936 58.655499,454.13903 Z"
         id="path1029-2-1"
         sodipodi:nodetypes="ccccc" />
      <path
         style="fill:#000000;stroke:#000000;stroke-width:0.660575px;stroke-linecap:butt;stroke-linejoin:miter;stroke-opacity:1"
         d="m 87.019503,471.16535 0.13678,-94.52729 22.285127,-0.49149 0.20994,78.50548 z"
         id="path1029-22-1"
         sodipodi:nodetypes="ccccc" />
      <path
         style="fill:#ff0000;stroke:#000000;stroke-width:0.660575px;stroke-linecap:butt;stroke-linejoin:miter;stroke-opacity:1"
         d="m 17.73297,413.27597 1.556714,16.45198 c 4.522513,47.79562 41.529935,65.93703 41.529935,65.93703 l 17.292373,-17.67099 v 0 C 42.99084,463.25242 41.820046,420.22227 41.820046,420.22227 l 8.726573,4.21915 -12.641167,-35.67226 -26.893237,24.52243 z"
         id="path1058-3"
         sodipodi:nodetypes="cscccccccc" />
      <path
         style="fill:#008000;stroke:#000000;stroke-width:0.660575px;stroke-linecap:butt;stroke-linejoin:miter;stroke-opacity:1"
         d="m 182.94876,432.27245 -38.81464,-59.14745 -6.28338,1.81426 -0.57,-7.60478 7.97103,-2.60228 49.4189,72.79039 c 0,0 -40.72781,3.05966 -78.54981,27.53816 -42.139027,27.27249 -72.016671,58.91602 -72.016671,58.91602 0,0 29.789891,-38.41197 61.248941,-60.05684 40.3409,-27.75588 77.59563,-31.64748 77.59563,-31.64748 z"
         id="path1082-0"
         sodipodi:nodetypes="ccccccscsc" />
      <path
         style="fill:#008000;stroke:#000000;stroke-width:0.660575px;stroke-linecap:butt;stroke-linejoin:miter;stroke-opacity:1"
         d="m 202.12443,439.80544 -41.26679,-59.92532 -4.38368,1.54511 -4.13879,-6.63097 12.22173,-4.8489 50.87783,74.99071 c 0,0 -18.83518,-2.31744 -59.32252,10.57898 -24.21707,7.71385 -55.75475,25.0573 -55.75475,25.0573 0,0 17.59748,-16.42396 39.60239,-25.03461 36.09704,-14.12499 62.16458,-15.7323 62.16458,-15.7323 z"
         id="path1082-3-3"
         sodipodi:nodetypes="ccccccscsc" />
      <path
         style="fill:#000000;stroke:#000000;stroke-width:0.660575px;stroke-linecap:butt;stroke-linejoin:miter;stroke-opacity:1"
         d="m 186.79922,455.19584 -2.562,-4.31396 v 0 0 l 9.54105,-2.20381 6.33125,11.6484 c 0,0 -10.81582,-3.31215 -51.30318,6.21565 -24.62772,5.79558 -43.2515,16.74804 -43.2515,16.74804 0,0 11.99506,-11.41147 34.28313,-19.02326 33.79571,-11.54186 46.96125,-9.07106 46.96125,-9.07106 z"
         id="path1082-3-8-2"
         sodipodi:nodetypes="ccccccscsc" />
      <path
         style="fill:#008000;stroke:#000000;stroke-width:0.660575px;stroke-linecap:butt;stroke-linejoin:miter;stroke-opacity:1"
         d="m 73.276013,500.27657 20.90855,-17.01242 c 0,0 12.543107,3.76008 24.525377,0.47881 10.85125,-2.97155 18.84311,-10.95713 18.84311,-10.95713 l 29.67371,-7.20195 c 0,0 -0.57909,4.77579 -7.018,15.12156 -6.69537,10.75786 -13.10808,13.10081 -13.10808,13.10081 l 10.01039,27.21749 -24.61212,-17.19056 c 0,0 -13.24894,4.71104 -27.61332,4.58047 -18.857526,-0.17142 -31.609617,-8.13708 -31.609617,-8.13708 z"
         id="path1125-1"
         sodipodi:nodetypes="ccsccscccsc" />
      <path
         style="fill:#ff0000;stroke:#000000;stroke-width:0.660575px;stroke-linecap:butt;stroke-linejoin:miter;stroke-opacity:1"
         d="m 15.289104,403.43815 c 6.038803,-11.23291 10.005546,-29.7056 35.621983,-39.99503 31.445343,-12.63073 60.661343,3.41593 60.661343,3.41593 0,0 3.33207,5.32033 -2.27163,6.93002 -5.25542,1.50964 -16.684688,-1.44643 -32.590064,2.85202 -17.316611,4.67984 -31.050503,24.23877 -31.050503,24.23877 l -5.99761,-17.9856 z"
         id="path1127-7"
         sodipodi:nodetypes="cscssccc" />
    </g>
  </g>
</svg>
