<?xml version="1.0" encoding="iso-8859-1"?>
<!-- Generator: Adobe Illustrator 18.0.0, SVG Export Plug-In . SVG Version: 6.00 Build 0)  -->
<!DOCTYPE svg PUBLIC "-//W3C//DTD SVG 1.1//EN" "http://www.w3.org/Graphics/SVG/1.1/DTD/svg11.dtd">
<svg version="1.1" id="Capa_1" xmlns="http://www.w3.org/2000/svg" xmlns:xlink="http://www.w3.org/1999/xlink" x="0px" y="0px"
	 viewBox="0 0 65.667 65.667" style="enable-background:new 0 0 65.667 65.667;" xml:space="preserve">
<path d="M5.198,59.545H21.29c0.552,0,1-0.448,1-1V20.94c0-0.552-0.448-1-1-1H5.198c-0.552,0-1,0.448-1,1v37.605
	C4.198,59.097,4.646,59.545,5.198,59.545z M6.198,21.94H20.29v35.605H6.198V21.94z M24.788,59.545h16.092c0.552,0,1-0.448,1-1V8.171
	c0-0.552-0.448-1-1-1H24.788c-0.552,0-1,0.448-1,1v50.374C23.788,59.097,24.235,59.545,24.788,59.545z M25.788,9.171h14.092v48.374
	H25.788V9.171z M44.377,59.545h16.092c0.552,0,1-0.448,1-1V3.799c0-0.552-0.448-1-1-1H44.377c-0.552,0-1,0.448-1,1v54.747
	C43.377,59.097,43.825,59.545,44.377,59.545z M45.377,4.799h14.092v52.747H45.377V4.799z M65.667,61.868c0,0.552-0.448,1-1,1H1
	c-0.552,0-1-0.448-1-1s0.448-1,1-1h63.667C65.219,60.868,65.667,61.316,65.667,61.868z"/>
<g>
</g>
<g>
</g>
<g>
</g>
<g>
</g>
<g>
</g>
<g>
</g>
<g>
</g>
<g>
</g>
<g>
</g>
<g>
</g>
<g>
</g>
<g>
</g>
<g>
</g>
<g>
</g>
<g>
</g>
</svg>
